<svg width="128" height="128" viewBox="0 0 128 128" fill="none" xmlns="http://www.w3.org/2000/svg">
<g opacity="0.4">
<path d="M64 120C94.9279 120 120 94.9279 120 64C120 33.0721 94.9279 8 64 8C33.0721 8 8 33.0721 8 64C8 94.9279 33.0721 120 64 120Z" fill="#ECECEC"/>
<path d="M119.7 24.0586V64.0586L116.58 68.4386L110.32 71.8186L34.2 83.4386L34.02 82.4586L23.78 24.5586L23.7 24.0586H119.7Z" fill="#CECECE"/>
<path d="M42.98 81.0786L34.02 82.4586L23.78 24.5586H32.98L42.98 81.0786Z" fill="#E4E4E4"/>
<path d="M109.82 24.5586V61.4186C109.818 63.455 109.182 65.4403 108 67.0986C107.129 68.2979 106.001 69.2885 104.7 69.9986L100.44 72.2986L42.98 81.0786L32.98 24.5586H109.82Z" fill="#F6F6F6"/>
<path d="M87.7999 24C87.8316 27.2028 86.9109 30.3427 85.1546 33.0212C83.3983 35.6997 80.8857 37.7958 77.9358 39.0435C74.9858 40.2912 71.7317 40.6341 68.5865 40.0288C65.4413 39.4234 62.5469 37.8971 60.2709 35.6436C57.9948 33.3901 56.4398 30.511 55.8031 27.372C55.1665 24.233 55.4771 20.9756 56.6953 18.0134C57.9136 15.0512 59.9847 12.5178 62.6455 10.735C65.3064 8.95211 68.437 8.00017 71.6399 8.00001C75.8998 7.99457 79.9892 9.67347 83.0163 12.6707C86.0435 15.6678 87.763 19.7403 87.7999 24Z" fill="#E0E0E0"/>
<path d="M82 29.84C81.9999 31.853 81.6199 33.8479 80.88 35.72C80.5976 36.5077 80.2498 37.2704 79.84 38C76.7652 39.7937 73.1841 40.522 69.6529 40.0717C66.1217 39.6214 62.838 38.0177 60.3118 35.5097C57.7855 33.0017 56.1581 29.7297 55.6822 26.2018C55.2063 22.674 55.9086 19.0877 57.68 16C58.4177 15.5401 59.1939 15.1452 60 14.82C61.9073 14.0548 63.9451 13.6677 66 13.68C70.2581 13.7221 74.3275 15.4433 77.3236 18.4693C80.3196 21.4954 82.0002 25.5817 82 29.84Z" fill="white"/>
<path d="M82 29.84C81.9998 31.853 81.6199 33.8479 80.88 35.72C78.974 36.4896 76.9354 36.8769 74.88 36.86C70.5941 36.86 66.4837 35.1574 63.4531 32.1268C60.4225 29.0962 58.72 24.9859 58.72 20.7C58.7709 18.6767 59.2052 16.6814 60 14.82C61.9072 14.0548 63.945 13.6677 66 13.68C70.2581 13.7221 74.3275 15.4433 77.3235 18.4693C80.3196 21.4954 82.0002 25.5817 82 29.84Z" fill="white"/>
<path d="M53.3199 112.821C53.3205 114.446 52.7744 116.024 51.7695 117.301C50.7647 118.578 49.3594 119.48 47.7799 119.861C47.1948 119.982 46.5968 120.029 45.9999 120.001C44.5592 120.001 43.1509 119.574 41.9533 118.773C40.7557 117.972 39.8226 116.834 39.2722 115.503C38.7218 114.171 38.5788 112.707 38.8613 111.294C39.1439 109.881 39.8392 108.584 40.8593 107.567C41.8794 106.549 43.1785 105.858 44.592 105.579C46.0055 105.3 47.4699 105.447 48.7998 106.001C50.1297 106.555 51.2653 107.492 52.0628 108.691C52.8603 109.891 53.2839 111.301 53.2799 112.741L53.3199 112.821Z" fill="#CECECE"/>
<path d="M109.82 112.819C109.82 114.259 109.393 115.667 108.593 116.864C107.793 118.061 106.656 118.994 105.326 119.545C103.996 120.096 102.532 120.24 101.12 119.959C99.7076 119.678 98.4104 118.985 97.3923 117.967C96.3742 116.949 95.6808 115.652 95.3999 114.239C95.119 112.827 95.2632 111.363 95.8142 110.033C96.3652 108.703 97.2983 107.566 98.4955 106.766C99.6927 105.966 101.1 105.539 102.54 105.539C103.498 105.534 104.447 105.719 105.332 106.083C106.218 106.446 107.023 106.983 107.7 107.66C108.377 108.337 108.913 109.141 109.277 110.027C109.641 110.913 109.825 111.862 109.82 112.819Z" fill="#CECECE"/>
<path d="M48.72 116.319C48.7245 117.562 48.4002 118.783 47.78 119.859C47.1949 119.98 46.5969 120.027 46 119.999C44.7291 120.008 43.4783 119.681 42.3735 119.053C41.2687 118.424 40.3488 117.516 39.7063 116.42C39.0637 115.323 38.7212 114.077 38.713 112.806C38.7049 111.535 39.0315 110.284 39.66 109.179C40.732 108.907 41.852 108.885 42.9341 109.113C44.0162 109.341 45.0317 109.814 45.9026 110.496C46.7734 111.177 47.4766 112.049 47.958 113.045C48.4395 114.041 48.6865 115.133 48.68 116.239L48.72 116.319Z" fill="#F6F6F6"/>
<path d="M105.22 116.321C105.232 117.562 104.914 118.783 104.3 119.861C103.229 120.132 102.11 120.155 101.028 119.928C99.9466 119.701 98.9312 119.23 98.0593 118.551C97.1874 117.872 96.482 117.003 95.9969 116.01C95.5118 115.017 95.2598 113.926 95.26 112.821C95.2604 111.573 95.5843 110.347 96.2 109.261C97.272 108.989 98.392 108.967 99.4741 109.195C100.556 109.423 101.572 109.896 102.443 110.578C103.313 111.259 104.017 112.132 104.498 113.127C104.979 114.123 105.226 115.215 105.22 116.321Z" fill="#F6F6F6"/>
<path d="M120 98H34.9599C25.4399 98 25.4399 93.62 25.4399 92C25.4847 91.2779 25.687 90.5743 26.0325 89.9385C26.378 89.3028 26.8583 88.7504 27.4399 88.32C29.1853 87.0131 31.2661 86.2293 33.4399 86.06L34.2199 85.92H34.3999L109.26 74C112.664 73.4731 115.766 71.7418 118.001 69.1211C120.236 66.5004 121.457 63.1645 121.44 59.72V24C121.44 23.4696 121.229 22.9609 120.854 22.5858C120.479 22.2107 119.97 22 119.44 22H89.76C89.2117 17.6127 87.0799 13.5766 83.7653 10.6504C80.4507 7.72421 76.1814 6.10936 71.7599 6.10936C67.3385 6.10936 63.0692 7.72421 59.7546 10.6504C56.44 13.5766 54.3082 17.6127 53.7599 22H24.9999L23.5599 14C23.1783 11.7658 22.0199 9.73804 20.2892 8.27443C18.5585 6.81082 16.3665 6.00533 14.0999 6H7.43994C6.90951 6 6.4008 6.21071 6.02573 6.58579C5.65066 6.96086 5.43994 7.46957 5.43994 8C5.43994 8.53043 5.65066 9.03914 6.02573 9.41421C6.4008 9.78929 6.90951 10 7.43994 10H14.0999C15.4124 10.0016 16.6829 10.4624 17.6911 11.3026C18.6994 12.1428 19.3817 13.3094 19.6199 14.6L31.6199 82.26C29.1448 82.6618 26.8082 83.672 24.8199 85.2C23.7867 86.0111 22.9473 87.0423 22.3626 88.2186C21.7779 89.3949 21.4627 90.6866 21.4399 92C21.4399 95.74 23.1999 102 34.9599 102H120C120.53 102 121.039 101.789 121.414 101.414C121.789 101.039 122 100.53 122 100C122 99.4696 121.789 98.9609 121.414 98.5858C121.039 98.2107 120.53 98 120 98ZM71.7199 10C74.5273 10.0002 77.2713 10.8348 79.6032 12.398C81.9351 13.9611 83.7498 16.1821 84.8167 18.7788C85.8836 21.3755 86.1545 24.2308 85.595 26.9819C85.0356 29.7329 83.671 32.2556 81.6746 34.2294C79.6783 36.2032 77.1403 37.539 74.383 38.0671C71.6258 38.5953 68.7738 38.292 66.1894 37.1957C63.6049 36.0993 61.4047 34.2595 59.8682 31.91C58.3317 29.5604 57.5282 26.8072 57.56 24C57.6072 20.274 59.1193 16.7163 61.7692 14.0964C64.419 11.4765 67.9936 10.005 71.7199 10ZM53.7199 26.16C54.2682 30.5473 56.4 34.5834 59.7146 37.5096C63.0292 40.4358 67.2985 42.0506 71.7199 42.0506C76.1414 42.0506 80.4107 40.4358 83.7253 37.5096C87.0399 34.5834 89.1717 30.5473 89.72 26.16H117.44V59.78C117.454 62.2726 116.57 64.6869 114.951 66.5817C113.331 68.4766 111.084 69.7254 108.62 70.1L35.6599 81.7L25.7199 26L53.7199 26.16Z" fill="#8E8E8E"/>
<path d="M45.84 103.539C44.0038 103.539 42.2088 104.084 40.6823 105.104C39.1558 106.125 37.9663 107.576 37.2645 109.272C36.5628 110.969 36.3801 112.836 36.7398 114.637C37.0995 116.438 37.9854 118.091 39.2852 119.388C40.585 120.685 42.2404 121.567 44.0419 121.923C45.8434 122.279 47.7099 122.092 49.4052 121.387C51.1006 120.681 52.5485 119.489 53.5658 117.96C54.5831 116.431 55.124 114.635 55.12 112.799C55.1147 110.341 54.1347 107.986 52.3949 106.25C50.6552 104.514 48.2978 103.539 45.84 103.539ZM45.84 118.079C44.7958 118.079 43.7749 117.769 42.9066 117.189C42.0383 116.609 41.3616 115.784 40.962 114.82C40.5623 113.855 40.4578 112.793 40.6615 111.769C40.8652 110.745 41.3681 109.804 42.1065 109.066C42.8449 108.327 43.7857 107.824 44.81 107.621C45.8342 107.417 46.8958 107.521 47.8606 107.921C48.8254 108.321 49.65 108.997 50.2302 109.866C50.8104 110.734 51.12 111.755 51.12 112.799C51.099 114.185 50.5335 115.508 49.5456 116.481C48.5576 117.454 47.2266 117.999 45.84 117.999V118.079Z" fill="#8E8E8E"/>
<path d="M102.34 103.539C100.504 103.539 98.7088 104.084 97.1823 105.104C95.6558 106.125 94.4663 107.576 93.7645 109.272C93.0628 110.969 92.8801 112.836 93.2398 114.637C93.5995 116.438 94.4854 118.091 95.7852 119.388C97.085 120.685 98.7404 121.567 100.542 121.923C102.343 122.279 104.21 122.092 105.905 121.387C107.601 120.681 109.049 119.489 110.066 117.96C111.083 116.431 111.624 114.635 111.62 112.799C111.615 110.341 110.635 107.986 108.895 106.25C107.155 104.514 104.798 103.539 102.34 103.539ZM102.34 118.079C101.296 118.079 100.275 117.769 99.4066 117.189C98.5383 116.609 97.8616 115.784 97.462 114.82C97.0623 113.855 96.9578 112.793 97.1615 111.769C97.3652 110.745 97.8681 109.804 98.6065 109.066C99.3449 108.327 100.286 107.824 101.31 107.621C102.334 107.417 103.396 107.521 104.361 107.921C105.325 108.321 106.15 108.997 106.73 109.866C107.31 110.734 107.62 111.755 107.62 112.799C107.599 114.185 107.033 115.508 106.046 116.481C105.058 117.454 103.727 117.999 102.34 117.999V118.079Z" fill="#8E8E8E"/>
<path d="M63.8798 31.7802C64.2546 32.1527 64.7615 32.3618 65.2898 32.3618C65.8182 32.3618 66.3251 32.1527 66.6998 31.7802L71.5798 26.9002L76.4598 31.7802C76.6451 31.9692 76.8659 32.1195 77.1097 32.2225C77.3534 32.3255 77.6152 32.3791 77.8798 32.3802C78.2771 32.3825 78.666 32.2665 78.9971 32.0469C79.3281 31.8272 79.5862 31.514 79.7386 31.1472C79.8909 30.7803 79.9305 30.3763 79.8524 29.9868C79.7743 29.5973 79.5819 29.2399 79.2998 28.9602L74.4198 24.0002L79.2998 19.2002C79.485 19.0137 79.6316 18.7926 79.7313 18.5494C79.831 18.3063 79.8819 18.0459 79.8809 17.7831C79.88 17.5203 79.8273 17.2603 79.7259 17.0179C79.6245 16.7754 79.4763 16.5554 79.2898 16.3702C79.1034 16.185 78.8822 16.0384 78.6391 15.9387C78.3959 15.839 78.1356 15.7881 77.8728 15.7891C77.61 15.79 77.3499 15.8427 77.1075 15.9441C76.8651 16.0455 76.645 16.1937 76.4598 16.3802L71.5798 21.2602L66.6998 16.3802C66.3251 16.0077 65.8182 15.7986 65.2898 15.7986C64.7615 15.7986 64.2546 16.0077 63.8798 16.3802C63.5073 16.7549 63.2982 17.2618 63.2982 17.7902C63.2982 18.3186 63.5073 18.8255 63.8798 19.2002L68.7598 24.0002L63.8798 28.8802C63.6832 29.067 63.5265 29.2919 63.4195 29.5412C63.3125 29.7905 63.2573 30.0589 63.2573 30.3302C63.2573 30.6015 63.3125 30.8699 63.4195 31.1192C63.5265 31.3684 63.6832 31.5933 63.8798 31.7802Z" fill="#8E8E8E"/>
</g>
</svg>
